<svg xmlns="http://www.w3.org/2000/svg" width="1120" height="780" viewBox="0 0 1120 780" role="img" aria-labelledby="title desc">
<title id="title">Episode workflow</title>
<desc id="desc">Save state at each stage. Repair only affected assets. Future feedback is retrieved for the next episode.</desc>
<defs><marker id="arrow" viewBox="0 0 10 10" refX="9" refY="5" markerWidth="7" markerHeight="7" orient="auto"><path d="M 0 0 L 10 5 L 0 10 z" fill="#64748b"/></marker></defs>
<rect width="1120" height="780" fill="#fffaf0"/>
<text x="48" y="56" font-family="Arial,sans-serif" font-size="28" font-weight="700" fill="#163c3a">Episode workflow</text>
<path d="M258,146 L390,146" fill="none" stroke="#64748b" stroke-width="2" marker-end="url(#arrow)"/>
<path d="M600,146 L732,146" fill="none" stroke="#64748b" stroke-width="2" marker-end="url(#arrow)"/>
<path d="M837,182 L837,288" fill="none" stroke="#64748b" stroke-width="2" marker-end="url(#arrow)"/>
<path d="M732,324 L600,324" fill="none" stroke="#64748b" stroke-width="2" marker-end="url(#arrow)"/>
<text x="671.0" y="317.0" font-family="Arial,sans-serif" font-size="12" fill="#475569">pass</text>
<path d="M390,324 L258,324" fill="none" stroke="#64748b" stroke-width="2" marker-end="url(#arrow)"/>
<path d="M153,360 L153,466" fill="none" stroke="#64748b" stroke-width="2" marker-end="url(#arrow)"/>
<path d="M258,502 L390,502" fill="none" stroke="#64748b" stroke-width="2" marker-end="url(#arrow)"/>
<text x="329.0" y="495.0" font-family="Arial,sans-serif" font-size="12" fill="#475569">pass</text>
<path d="M600,502 L732,502" fill="none" stroke="#64748b" stroke-width="2" marker-end="url(#arrow)"/>
<path d="M153,538 L153,624" fill="none" stroke="#64748b" stroke-width="2" marker-end="url(#arrow)"/>
<text x="158.0" y="574.0" font-family="Arial,sans-serif" font-size="12" fill="#475569">limit reached</text>
<path d="M837,538 L837,624" fill="none" stroke="#64748b" stroke-width="2" marker-end="url(#arrow)"/>
<rect x="48" y="110" width="210" height="72" rx="12" fill="white" stroke="#32827b" stroke-width="2"/>
<text x="153" y="139" text-anchor="middle" font-family="Arial,sans-serif" font-size="15" fill="#163c3a">Input + memory</text>
<text x="153" y="160" text-anchor="middle" font-family="Arial,sans-serif" font-size="15" fill="#163c3a">Topic, sources, canon</text>
<rect x="390" y="110" width="210" height="72" rx="12" fill="white" stroke="#32827b" stroke-width="2"/>
<text x="495" y="139" text-anchor="middle" font-family="Arial,sans-serif" font-size="15" fill="#163c3a">Research brief</text>
<text x="495" y="160" text-anchor="middle" font-family="Arial,sans-serif" font-size="15" fill="#163c3a">Facts and uncertainty</text>
<rect x="732" y="110" width="210" height="72" rx="12" fill="white" stroke="#32827b" stroke-width="2"/>
<text x="837" y="139" text-anchor="middle" font-family="Arial,sans-serif" font-size="15" fill="#163c3a">Three story angles</text>
<text x="837" y="160" text-anchor="middle" font-family="Arial,sans-serif" font-size="15" fill="#163c3a">Creator selects one</text>
<rect x="732" y="288" width="210" height="72" rx="12" fill="white" stroke="#32827b" stroke-width="2"/>
<text x="837" y="317" text-anchor="middle" font-family="Arial,sans-serif" font-size="15" fill="#163c3a">Script + review</text>
<text x="837" y="338" text-anchor="middle" font-family="Arial,sans-serif" font-size="15" fill="#163c3a">Bounded revisions</text>
<rect x="390" y="288" width="210" height="72" rx="12" fill="white" stroke="#32827b" stroke-width="2"/>
<text x="495" y="317" text-anchor="middle" font-family="Arial,sans-serif" font-size="15" fill="#163c3a">Panel artwork</text>
<text x="495" y="338" text-anchor="middle" font-family="Arial,sans-serif" font-size="15" fill="#163c3a">Approved references</text>
<rect x="48" y="288" width="210" height="72" rx="12" fill="white" stroke="#32827b" stroke-width="2"/>
<text x="153" y="317" text-anchor="middle" font-family="Arial,sans-serif" font-size="15" fill="#163c3a">Compose + validate</text>
<text x="153" y="338" text-anchor="middle" font-family="Arial,sans-serif" font-size="15" fill="#163c3a">Exact dialogue and brand</text>
<rect x="48" y="466" width="210" height="72" rx="12" fill="white" stroke="#32827b" stroke-width="2"/>
<text x="153" y="495" text-anchor="middle" font-family="Arial,sans-serif" font-size="15" fill="#163c3a">Visual review</text>
<text x="153" y="516" text-anchor="middle" font-family="Arial,sans-serif" font-size="15" fill="#163c3a">Targeted repairs</text>
<rect x="390" y="466" width="210" height="72" rx="12" fill="white" stroke="#32827b" stroke-width="2"/>
<text x="495" y="495" text-anchor="middle" font-family="Arial,sans-serif" font-size="15" fill="#163c3a">Copy + package</text>
<text x="495" y="516" text-anchor="middle" font-family="Arial,sans-serif" font-size="15" fill="#163c3a">Transcript and captions</text>
<rect x="732" y="466" width="210" height="72" rx="12" fill="white" stroke="#32827b" stroke-width="2"/>
<text x="837" y="495" text-anchor="middle" font-family="Arial,sans-serif" font-size="15" fill="#163c3a">Deliver + history</text>
<text x="837" y="516" text-anchor="middle" font-family="Arial,sans-serif" font-size="15" fill="#163c3a">Manual publish / dry run</text>
<rect x="48" y="624" width="210" height="72" rx="12" fill="white" stroke="#32827b" stroke-width="2"/>
<text x="153" y="653" text-anchor="middle" font-family="Arial,sans-serif" font-size="15" fill="#163c3a">Needs review</text>
<text x="153" y="674" text-anchor="middle" font-family="Arial,sans-serif" font-size="15" fill="#163c3a">Save unresolved draft</text>
<rect x="732" y="624" width="210" height="72" rx="12" fill="white" stroke="#32827b" stroke-width="2"/>
<text x="837" y="653" text-anchor="middle" font-family="Arial,sans-serif" font-size="15" fill="#163c3a">Feedback + metrics</text>
<text x="837" y="674" text-anchor="middle" font-family="Arial,sans-serif" font-size="15" fill="#163c3a">Inform next episode</text>
<text x="48" y="748" font-family="Arial,sans-serif" font-size="14" fill="#475569">Save state at each stage. Repair only affected assets. Future feedback is retrieved for the next episode.</text>
</svg>